<svg xmlns="http://www.w3.org/2000/svg" width="488.354" height="616.323" viewBox="0 0 488.354 616.323"><defs><style>.a{fill:#f2f6fb;}.b{fill:#d8deed;}.c{fill:#e1e5f0;}.d{fill:#a339ff;}.e{fill:#ff5645;}.f{fill:#ffcb3d;}.g{fill:#3abf7c;}.h{fill:#de6903;}.i{fill:#474961;}.j{fill:#444;opacity:0.177;}.k{fill:#482d1f;}.l{fill:#db9e75;}.m{fill:#8c2a00;opacity:0.2;}.n{fill:#86e0eb;}.o{fill:none;stroke:#fff;stroke-linecap:round;stroke-linejoin:round;stroke-width:10px;}.o,.p{fill-rule:evenodd;}.p{fill:#fff;}</style></defs><g transform="translate(-273.11 352.505)"><g transform="translate(161 -409.121)"><g transform="translate(300.142 66.337)"><rect class="a" width="278.88" height="209.391" rx="20"/><g transform="translate(16.69 142.106)"><g transform="translate(0 0)"><path class="b" d="M25.242,50.994A25.5,25.5,0,0,1,25.242,0a25.5,25.5,0,0,1,0,50.994Zm.055-25.6a3.363,3.363,0,1,0-3.373-3.363A3.368,3.368,0,0,0,25.3,25.39Zm0,1.681a6.1,6.1,0,0,0-6.113,6.1H31.41A6.1,6.1,0,0,0,25.3,27.071Z" transform="translate(0 0)"/></g></g><path class="c" d="M16.69,45.841a2.775,2.775,0,0,1,2.776-2.779H196.44a2.779,2.779,0,0,1,2.776,2.779V121.7a2.774,2.774,0,0,1-2.776,2.779H19.466A2.779,2.779,0,0,1,16.69,121.7ZM85.277,162.853H224.582a5.059,5.059,0,0,1,0,10.118H85.277a5.059,5.059,0,1,1,0-10.118Zm0,16.441H249.908a5.059,5.059,0,0,1,0,10.118H85.277a5.059,5.059,0,1,1,0-10.118Zm0-32.883H189.126a5.059,5.059,0,0,1,0,10.118H85.277a5.059,5.059,0,1,1,0-10.118ZM0,11.842A11.841,11.841,0,0,1,11.839,0H267.58a11.84,11.84,0,0,1,11.839,11.842V23.684H0Z"/><g transform="translate(211.891 106.671)"><g transform="translate(0)"><path class="d" d="M8.905,0H41.8a8.905,8.905,0,0,1,0,17.81H8.905A8.905,8.905,0,0,1,8.905,0Z" transform="translate(0)"/></g></g><ellipse class="e" cx="5.115" cy="5.114" rx="5.115" ry="5.114" transform="translate(10.768 6.998)"/><ellipse class="f" cx="5.115" cy="5.114" rx="5.115" ry="5.114" transform="translate(27.457 6.998)"/><ellipse class="g" cx="5.115" cy="5.114" rx="5.115" ry="5.114" transform="translate(44.685 6.998)"/></g><g transform="translate(372.115 310.666)"><path class="b" d="M238.726,190.4V3.751C238.726,2.087,209.953.7,175.355.7h-7.211c-34.529,0-63.372,1.387-63.372,3.051V190.538c0,1.664,28.774,3.051,63.372,3.051h7.211C209.883,193.658,238.726,192.2,238.726,190.4Z" transform="translate(-32.475 -0.7)"/><path class="b" d="M2.145,453.324l.277.139a3,3,0,0,0,4.021-.971L87.634,303.353a2.865,2.865,0,0,0-1.317-3.883l-.277-.139a3,3,0,0,0-4.021.971L61.911,337.189Q42.255,373.381,22.529,409.5L.827,449.3A3.043,3.043,0,0,0,2.145,453.324Z" transform="translate(-0.5 -92.16)"/><path class="b" d="M208.146,296H17.892a3.138,3.138,0,0,0-3.12,3.051v.347a3.093,3.093,0,0,0,3.12,3.051H208.285a3.139,3.139,0,0,0,3.12-3.051v-.347A3.172,3.172,0,0,0,208.146,296Z" transform="translate(-4.877 -91.255)"/><path class="b" d="M290.834,449.289l-21.7-39.8Q249.476,373.3,229.75,337.175l-20.107-36.886a2.937,2.937,0,0,0-4.021-.971l-.277.139a2.884,2.884,0,0,0-1.317,3.883l81.191,149.139a2.937,2.937,0,0,0,4.021.971l.277-.139A3.043,3.043,0,0,0,290.834,449.289Z" transform="translate(-62.812 -92.146)"/></g><g transform="translate(137.348 475.682)"><g transform="translate(0 0)"><path class="f" d="M117.756,19.1c4.984,2.477,6.686,4.928,6.951,7.072.389,3.607-.454,6.506-2.464,11.273a244.223,244.223,0,0,0-9.855,29.117q-1.167-.251-2.33-.53a45.558,45.558,0,0,1,1.568,10.93H4.176c1.822,0,15-35.671,61.481-39.3q2-.159,3.891-.2a15.268,15.268,0,0,1,1.66-3.866c-1.948-4.774-3.447-15.963-3.956-20.622a1.826,1.826,0,0,1,.131-.575,1.248,1.248,0,0,1,1.569-.511L83.666,19.1c2.513-.919,5.171-1.755,7.975-2.591,2.655-.812,5.31-1.5,7.808-2.139L104.716.682a1.022,1.022,0,0,1,1.36-.589.872.872,0,0,1,.453.393C109.256,4.332,115.954,14.14,117.756,19.1Z" transform="translate(-1.271 0)"/><path class="h" d="M.112,82.073q-.823-5.2,4.39-6.334Q26,74.549,42.761,78.93t19.522,7.65H4.5A4.413,4.413,0,0,1,.112,82.073ZM113.942,58.6c1.671-1.937,6.813-10.264,6.813-10.264S115.1,65.5,111.692,76.156c.193-.9-2.506,6.326-2.827,4.454v-.065a4.726,4.726,0,0,0-4.37-3.808q-3.085-.194-6.556-.194a69.175,69.175,0,0,0-8.933.581L84.7,64.02a25.274,25.274,0,0,0,13.56,2.518,23.177,23.177,0,0,0,4.691-.9A23.783,23.783,0,0,0,113.942,58.6ZM98.481,42.753a2.983,2.983,0,0,0,5.231-2.55,1.04,1.04,0,1,1,2.045-.378,5.262,5.262,0,0,1-2.6,5.552l-.072.037a5.249,5.249,0,0,1-5.2-.434,5.09,5.09,0,0,1-2.642,2.636,5.37,5.37,0,0,1-6.593-2.2,1.04,1.04,0,0,1,1.806-1.031A3.278,3.278,0,0,0,94.445,45.7a2.647,2.647,0,0,0,1.682-2.618l-.011-.02a2.985,2.985,0,0,1-.3-1.767,1.491,1.491,0,0,1,.6-1.047,1.3,1.3,0,0,1,1.866.458A3.127,3.127,0,0,1,98.481,42.753Zm-17.564.029c.731,1.374.061,3.337-.67,3.467-.548.065-1.218-.654-1.462-1.112a2.955,2.955,0,0,1-.305-1.767,1.489,1.489,0,0,1,.609-1.047A1.252,1.252,0,0,1,80.918,42.782Zm31.225-11.094c.677,1.374.062,3.206-.677,3.467-.553.065-1.23-.654-1.476-1.112a2.931,2.931,0,0,1-.307-1.767,1.482,1.482,0,0,1,.615-1.047A1.271,1.271,0,0,1,112.142,31.688Z" transform="translate(0 -9.506)"/></g></g><g transform="translate(333.14 220.485)"><g transform="translate(0 0)"><g transform="translate(0 205.86)"><path class="e" d="M3.076,346.635h109a2.955,2.955,0,1,1,0,5.91h-109a2.955,2.955,0,0,1,0-5.91Zm122.264,0h68.919a2.955,2.955,0,1,1,0,5.91H125.34a2.955,2.955,0,1,1,0-5.91Z" transform="translate(-0.121 -106.297)"/><path class="i" d="M194.632,328.544H126.626l5.452-35.87h48.464Zm-79.578.634a2.945,2.945,0,0,0-1.829-.634H4.22a3.012,3.012,0,0,0-.318.017,7.684,7.684,0,0,1-.048-1.089,13.43,13.43,0,0,1,.227-1.507c.858-3.138,1.9-5.222,4.937-7.074a84.919,84.919,0,0,1,9.376-4.962c11.925-5.509,16-5.439,23.841-10.493a63.334,63.334,0,0,0,9.015-7.2q2.787-2.645,12.047-8.594l47.842.144Z" transform="translate(-1.265 -88.206)"/><path class="d" d="M195.256,85.986c-.11,32.13-1.214,74.813-1.595,89.5-.067,2.045.2,7.579-3.809,11.067-1.136,1.023-2.271,1.444-4.409,2.346-1.67.722-9.154,2.887-24.119,4.09a23.787,23.787,0,0,1-2.94.06c-15.433-.541-19.242-1.5-25.188-3.187a9.832,9.832,0,0,1-7.216-8.421c-1.871-17.5-7.015-65.2-7.416-69.41-.535-5.353-1-11.428-1.4-18.345l-.213-3.238L98.46,83.155c7.722,29.559,15.213,60.175,21.909,90.612a11.454,11.454,0,0,1-.8,8.017c-3.207,6.029-11.559,5.718-31.535,8.08-23.518,2.8-33.339,5.717-38.684-.249a10.384,10.384,0,0,1-2.606-4.847C41.866,160.592,17.681,90.427,8.261,40.087c0-.124-.067-.186-.067-.311A28.6,28.6,0,0,1,33.248,6.216c5.545-.684,10.556-1.342,16.1-2.026a31.2,31.2,0,0,1,5.015-.179l82.78-1.435c49.1-.427,42.336-6.126,57.688.937q15.353,7.063,20.906,40.217Q217.727,68.939,195.256,85.986Z" transform="translate(-2.448 0)"/><path class="j" d="M216.077,85.922q.009-2.518.009-4.944c0-12.511.067-23.277.2-30.194.134-5.473,1.136-35.547-11.826-41.8a41.941,41.941,0,0,0-4.543-1.744A66.434,66.434,0,0,0,176.734,3.99c-7.817.3-19.576.782-29.263,8.3C134.108,22.7,134.443,39.116,134.576,41.763l3.2,48.714-18.48-7.284c-5.148-19.708-10.4-38.947-15.585-57.349C100.166,13.319,88.323,4.65,75.332,4.007l82.549-1.431c49.1-.427,42.336-6.126,57.688.937q15.353,7.063,20.906,40.217Q238.461,68.892,216.077,85.922Z" transform="translate(-23.185 0)"/></g><g transform="translate(6.354 0)"><path class="e" d="M153.426,119.625q1.206-.52,2.466-.924l14.258-4.76q1.239-.226,2.468-.4c1.124-1.29,3.413-2.383,7.381-3.6,14.094-4.4,32.084,2.919,38.491,19.328,5.584,14.3,13,30.451,12.31,30.664a34.643,34.643,0,0,1-7.82,3.8q9.621,36.311,10.368,48.616c.991,16.337-4.5,27.287-23.126,28.675s-44.54,3.343-47.585-2.075q-2.938-5.224-27.611-64.519-9.224,2.986-9.634,3.057c-.858.149-3.777-9.465-5.677-24.666-2.181-17.445,8.4-31.993,25.933-34.969A9.756,9.756,0,0,1,153.426,119.625Z" transform="translate(-37.3 -33.66)"/><path class="j" d="M153.468,123.632c-17.439,7.234-26.1,32.006-20.29,50.324q.962,2.253,1.9,4.433-9.27,3-9.68,3.072c-.858.149-3.777-9.465-5.677-24.666-2.181-17.445,8.4-31.993,25.933-34.969A9.759,9.759,0,0,1,153.468,123.632Z" transform="translate(-37.3 -37.636)"/><path class="k" d="M126.961,126.143s-1.27,4.991,5.478,3.612,8.686-2.036,8.686-2.036l-1.737-4.531Z" transform="translate(-39.579 -38.108)"/><path class="l" d="M126.522,93.026l12.426,58.014,2.953-15.749q23.357,4.576,38.016,4.575h.157c-2.2,8.423-7.419,44.97-15.538,59.111-10.262,17.876-16.252,19.839-31.406,18.378a24.151,24.151,0,0,1-4.4-.823,19.345,19.345,0,0,0,2.049.544l-78.4,1.205-.006.021-.238-.017-.3,0a1.376,1.376,0,0,1-.418-.057l-32.078-2.357a18.029,18.029,0,0,1-13.014-7.049l-3.6-4.729a8.247,8.247,0,0,1,5.4-13.165l9.584-1.365a69.337,69.337,0,0,1,19.806.036l19.788,2.893c15.024-4.722,35.072-10.923,40.078-11.991l-6.215-28.843,7.347-2.884q3.459,7.9,6.511,14.838c-2.3-21.98-2.045-46.255-4.817-67.818l-6.948.149c-4.142,1.642-12.828,4.4-13.763-1.444,0,0,11.492-4.663,19.575-8.077l.6-.525a4.162,4.162,0,0,1,1.67-.919.856.856,0,0,1,.4-.066l.444-.064a15.543,15.543,0,0,1-2.341.037C94.249,84.642,87.4,74.751,84.1,60.335a31.692,31.692,0,0,1-.581-3.51L82.681,45.1a14.431,14.431,0,0,1,1.405-7.569,5.674,5.674,0,0,1,.341-.688,22.4,22.4,0,0,1,1.234-1.952,18.49,18.49,0,0,1,5.71-5.171,31.321,31.321,0,0,1,14.146-3.062c.471.025,1.953.1,4.04.18a28.815,28.815,0,0,0,5.794.293A2.033,2.033,0,0,1,117.4,29l.825,16.8a2.773,2.773,0,0,0,.1.526q10.091-4.1,14.449,4.683c4.358,8.787.412,6.886-1.526,9.228a10.2,10.2,0,0,1-4.3,2.875,1.44,1.44,0,0,0-.637.346l5.233.05.925,3.612L132.8,71.7l3.438,16.777A94.334,94.334,0,0,1,126.522,93.026Zm-11.685-9.983-.393-1.885-.5.209c-5.561,2.324-5.24,2.165-5.628,2.33-.833.256-1.644.46-2.414.622l5.988-.849Zm54.641,335.978h-43.9l.946-14.507c5.395,1.5,9.63,2.384,24.138,2.893a23.777,23.777,0,0,0,2.94-.06,154.131,154.131,0,0,0,16.493-2.118l3.824,13.6ZM102.6,401.514l1.912,12.426H56.417l3.172-7.042c5.381-.616,12.138-1.652,20.717-2.673C90.453,403.026,97.6,402.516,102.6,401.514Z" transform="translate(-0.991 -8.502)"/><path class="k" d="M169.08,105.307l-2.525.347-1.412.2-.144-.04-.4-1.9,7.171-3.038A13.974,13.974,0,0,1,169.08,105.307Z" transform="translate(-51.151 -31.267)"/><path class="k" d="M125.649,71.544c.238,1.166.673,3.04.216,3.936-.743,1.448-3.352-1.492-3.151-3.75.118-.933.549-1.366,1.082-1.411A1.619,1.619,0,0,1,125.649,71.544Zm14.2-2.473c.238,1.166.673,3.04.216,3.936-.743,1.448-3.352-1.492-3.151-3.75.118-.933.549-1.366,1.082-1.411A1.62,1.62,0,0,1,139.848,69.07Z" transform="translate(-38.303 -21.13)"/><path class="k" d="M.6.6,0,7.164A1.516,1.516,0,0,0,1.4,8.734a18.062,18.062,0,0,0,1.948.014c.532-.01.9-.014,1.326-.014a.657.657,0,1,0,0-1.313c-.44,0-.812,0-1.351.015a17.861,17.861,0,0,1-1.871-.013.279.279,0,0,1-.118-.2l.6-6.508A.668.668,0,0,0,.6.6Z" transform="translate(89.977 49.73) rotate(-5)"/><path class="k" d="M4.544,1.8c.467-.131,1.6-.589,1.735-1.245,0-.131.067-.328,0-.394C6.011-.172,5.143.089,3.941.284A29.021,29.021,0,0,1,0,.607,9.332,9.332,0,0,0,.937,2.053C1.673,2.842,3.81,2.057,4.544,1.8Z" transform="translate(92.054 60.342) rotate(-5)"/><path class="k" d="M145.963,60.768l2.215-.74a.987.987,0,1,1,.645,1.865l-2.215.74-1.67.558a9.255,9.255,0,0,1,.375,1.911,9.373,9.373,0,0,1-8.624,10.1,9.488,9.488,0,0,1-9.9-6.55l-1.17.181-.966.149a9.484,9.484,0,1,1-10.307-8.932,9.478,9.478,0,0,1,10.02,6.982l.941-.146.312,1.946c-1.149-.835-1.152-.864-1.155-.892l-1.048-.761.951-.147q.071.274.125.554a.938.938,0,0,1,.816-.7l1.1-.17a9.373,9.373,0,0,1,8.625-10.093,9.532,9.532,0,0,1,9.115,4.748Zm-22.232,8.359a1,1,0,0,1-1.147-.834.987.987,0,0,1,.836-1.112l1.891-.293,1.1-.17s0,.006,0,.009a9.211,9.211,0,0,0,.381,1.926l-1.17.181Zm1.892-.293a.948.948,0,0,1-1.008-.44Zm10.892,4.407a7.357,7.357,0,1,0-8.107-6.686A7.393,7.393,0,0,0,136.516,73.242ZM114.525,62.015a7.357,7.357,0,1,0,8.107,6.686q-.019-.2-.048-.407A7.456,7.456,0,0,0,114.525,62.015Z" transform="translate(-33.085 -17.685)"/><path class="m" d="M130.727,271.093l-78.4,1.205-.006.021-.238-.017-.3,0a1.374,1.374,0,0,1-.418-.057l-32.078-2.357a18.029,18.029,0,0,1-13.014-7.048l-3.6-4.729a8.247,8.247,0,0,1,5.4-13.165l9.584-1.365a69.339,69.339,0,0,1,19.806.036l19.788,2.893c15.024-4.722,35.072-10.923,40.078-11.991L91.1,205.679l7.347-2.884q3.662,8.36,6.867,15.645.558,4.335,1.309,8.625C111.556,252.864,117.274,268.284,130.727,271.093Z" transform="translate(-0.974 -62.519)"/><path class="k" d="M198.929,200.393a.982.982,0,0,1,.676-1.224,1,1,0,0,1,1.246.664l6.614,21.933a.982.982,0,0,1-.676,1.224,1,1,0,0,1-1.245-.665Zm41.86-10.716a.985.985,0,1,1,.015-1.97,24.063,24.063,0,0,0,7.856-1.2,1.006,1.006,0,0,1,1.272.616.98.98,0,0,1-.626,1.249A26.092,26.092,0,0,1,240.789,189.678Z" transform="translate(-61.665 -57.51)"/><path class="k" d="M160.7,54.85c1.015-.291,4.021-.939,5.866-3.169a8.841,8.841,0,0,0,1.465-9.157c-1.29-3.185-4.723-5.592-7.912-5.252a7.616,7.616,0,0,0-3.368,1.344,10.435,10.435,0,0,0-3.074,3.89l-.53,1.525c-.265-.341-.519-.659-.76-.953-5.113-4.7-8.066-7.964-13.246-12.66-2.6.883-19.322,6.732-20.579,6.181,0-6.672,2.482-8.82,2.9-9.383a21.529,21.529,0,0,1,6.07-5.665,31.323,31.323,0,0,1,14.146-3.062c.472.025,1.954.1,4.04.18.6.014,1.21.028,1.948.03,1.742-.018,3.085,0,3.89,0,10.175-.216,14.008-1.6,19.306.647.309.14.744.342,1.258.619a24.787,24.787,0,0,1,1.172-2.536C184.5-3.907,198.1.922,198.1,1s10.309.079,12.945,10.413c.263,1.027,2.111,8.28-.844,14.26-3.964,7.825-15.787,12.642-29.238,9.354a33.978,33.978,0,0,1-.064,5.138c-.734,7.578-4.936,12.355-6.165,14.373a57.37,57.37,0,0,1-6.072,8.12,21,21,0,0,1-6.9-6.213C161.416,55.924,161.062,55.391,160.7,54.85Z" transform="translate(-37.034 -0.478)"/></g></g></g><g transform="translate(328.478 404.06)"><path class="i" d="M1.153,8.3c7.28-7.627,22.464-13.936,48.4-.277,3.952,2.011,2.773,8.805-1.525,8.944l-44.3,1.248C.391,18.358-1.273,10.869,1.153,8.3Z" transform="translate(0.636 0) rotate(2)"/></g><g transform="translate(124.748 552.754)"><path class="n" d="M116.6.159h9.429a12.841,12.841,0,0,1,9.2,9.559q1.907,7.3-9.2,14.015l-.076-.017.007.017H9.479Q-1.627,17.022.279,9.718A12.842,12.842,0,0,1,9.479.159Z" transform="translate(0 -0.159)"/></g><g transform="translate(260.131 56.616)"><g transform="translate(0 0)"><rect class="n" width="114.402" height="71.415" rx="20"/><path class="o" d="M43.116,28,20,46.6,44.267,59.894" transform="translate(-6.133 -8.586)"/><path class="o" d="M108.066,59.894l23.2-15.912L107,28" transform="translate(-32.812 -8.586)"/><path class="o" d="M73,64.836,83.561,18.374" transform="translate(-22.386 -5.634)"/></g></g><g transform="translate(112.11 422.295)"><path class="b" d="M9.707,152.549q.172-.012.347-.012H148.029a4.853,4.853,0,1,1,0,9.707H10.054q-.175,0-.347-.012v83.561a4.853,4.853,0,0,1-9.707,0V5.2A4.855,4.855,0,0,1,3.847.451,4.835,4.835,0,0,1,5.893,0H418.434a4.853,4.853,0,0,1,0,9.707H9.707Z" transform="translate(0 0)"/></g><g transform="translate(164.734 291.252)"><g transform="translate(0)"><path class="i" d="M53.884,120.644l6.668-26.9H10.5C5.3,93.74,1,89.788,1,85V8.805C.931,3.952,5.161,0,10.43,0H162.758c5.2,0,9.5,3.952,9.5,8.736V85c0,4.784-4.3,8.736-9.5,8.736h-61l-2.753,26.9h18.059a4.923,4.923,0,0,1,0,9.846H39.759a4.9,4.9,0,0,1-4.923-4.923,4.812,4.812,0,0,1,4.923-4.923Z" transform="translate(-0.999)"/><path class="p" d="M147.2,106.919,147.4,153.5h-4.971Z" transform="translate(-44.37 -32.787)"/></g></g></g></g></svg>