<svg id="logo" xmlns="http://www.w3.org/2000/svg" width="75.768" height="67.391" viewBox="0 0 75.768 67.391">
  <path id="Rectangle_2" data-name="Rectangle 2" d="M9.15,0h0A9.15,9.15,0,0,1,18.3,9.15V37.171a0,0,0,0,1,0,0H0a0,0,0,0,1,0,0V9.15A9.15,9.15,0,0,1,9.15,0Z" transform="matrix(-0.656, -0.755, 0.755, -0.656, 12.585, 38.197)" fill="#885df1"/>
  <path id="Rectangle_3" data-name="Rectangle 3" d="M9.15,0h0A9.15,9.15,0,0,1,18.3,9.15V37.171a0,0,0,0,1,0,0H0a0,0,0,0,1,0,0V9.15A9.15,9.15,0,0,1,9.15,0Z" transform="matrix(0.695, 0.719, -0.719, 0.695, 61.149, 28.406)" fill="#fdd14f"/>
  <path id="Rectangle_1" data-name="Rectangle 1" d="M9.15,0h0A9.15,9.15,0,0,1,18.3,9.15V37.171a0,0,0,0,1,0,0H0a0,0,0,0,1,0,0V9.15A9.15,9.15,0,0,1,9.15,0Z" transform="translate(0 25.235) rotate(-45)" fill="rgba(252,112,155,0.88)"/>
  <path id="Rectangle_4" data-name="Rectangle 4" d="M9.15,0h0A9.15,9.15,0,0,1,18.3,9.15V37.171a0,0,0,0,1,0,0H0a0,0,0,0,1,0,0V9.15A9.15,9.15,0,0,1,9.15,0Z" transform="translate(75.768 41.552) rotate(138)" fill="rgba(111,218,231,0.84)"/>
</svg>
